<?xml version="1.0" encoding="UTF-8"?>
<svg id="Ebene_2" data-name="Ebene 2" xmlns="http://www.w3.org/2000/svg" viewBox="0 0 480.03 480.19">
  <defs>
    <style>
      .cls-1 {
        fill: #e05830;
      }
    </style>
  </defs>
  <g id="Ebene_1-2" data-name="Ebene 1">
    <path class="cls-1" d="M281.38,198.86l6.61-2.54,6.74-2.77,7.03-1.92,7.01-1.94,7.09-1.59,6.99-2.26,7.28-.69,7.25-.85,7.29-.35,7.3-.1,7.26.83,7.28.31,7.21,1.04,7.18,1.23,7.17,1.32,6.9,2.36,6.96,2.12,6.98,2.15,6.5,3.33,6.44,3.4,6.67,3.03,6.12,4,5.46,4.89,6.11,4.05,5.34,4.99,4.81,5.83,3.13-6.83,3.15-6.53,1.64-7.06,1.42-7.08.89-7.2-.52-7.24-.3-7.27-2.12-6.97-1.59-7.11-3.16-6.56-3.04-6.62-3.42-5.58-4.08-5.15-5.39-3.71-5.78-2.93-7.65-.33-7.4,2.15-5.6,5.26-6.04,4.58-7.06,2.48-7.01.19-6.35-2.87-4.95-4.87-2.89-6.47.36-7.12,2.95-6.46,5.28-4.79,6.45-3.4,7.08-1.79,7.27.17,7.19.25,7.04,1.53,7.13,1.41,6.67,2.89,6.41,3.46,5.39,4.89,5.2,5.14,5.23,5.18,3.7,6.37,3.95,6.17,3.2,6.61,3,6.73,1.36,7.26,1.82,7.11.87,7.3-.05,7.34-.42,7.3-.65,7.29-1.23,7.23-1.71,7.17-2.9,6.77-3.29,6.58-4.43,6.08,4.17,6.28,3.13,6.67,2.41,6.95,2.52,6.93.99,7.31.85,7.29.42,7.33.08,7.37-.56,7.37-1.45,7.26-2.14,7.08-2.79,6.83-3.48,6.49-3.33,6.57-4.18,6.08-5.06,5.37-4.88,5.57-5.9,4.27-6.48,3.25-6.4,3.49-7.19,1.28-7.03,1.61-7.21.54-7.27-.23-7.04-1.91-6.47-3.33-4.73-4.96-3.63-5.85-.45-6.98,2.54-6.47,4.4-5.34,6.29-3,6.9.29,6.8,1.34,6.6,4.38,5.67,5.46,7.12,3.37,7.84-.94,6.02-1.35,5.05-3.72,4-4.82,3.52-6.51,3.93-6.22,3.09-6.69,1.9-7.12,1.76-7.14.71-7.32.76-7.35-.67-7.35-1.71-7.17-2.05-7.04-2.85-6.75-3.29-6.75-5.4,5.11-5.24,5.03-5.56,4.69-5.75,4.48-6.19,3.84-6.33,3.59-6.25,3.8-6.65,3.03-6.86,2.53-7.06,1.89-7.01,2.01-7.05,1.92-7.21,1.16-7.29.53-7.26.67-7.28.73-7.3-.52-7.25-.83-7.28-.3-7.28-.65-7.19-1.3-6.94-2.34-7.25-1.16-6.84-2.59-6.75-2.76-6.7-2.93,2.62,6.83,2.76,6.74,2.7,6.79,1.62,7.12,1.42,7.15,1.66,7.1.49,7.28,1.56,7.17.1,7.31-.48,7.29-.15,7.27-.27,7.28-.64,7.27-1.73,7.1-1.61,7.1-1.29,7.21-2.79,6.76-2.69,6.77-2.96,6.65-3.12,6.58-3.29,6.52-4.5,5.77-4.31,5.86-4.66,5.58-4.67,5.59-5.06,5.08,6.29,3.56,6.72,3.01,7.03,2.28,7.29,1.23,7.39-.21,7.38.63,7.22-1.63,7.34-.92,7-2.39,6.85-2.78,6.28-3.9,6.29-3.88,4.94-4.67,3.79-5.56,1.97-6.43-.07-6.78-3.77-8.07-6.57-6.03-3.45-6.03-1.32-6.78.74-6.79,3.3-6.09,5.78-3.86,6.66-1.95,6.93.75,6.26,3.13,4.38,5.44,2.69,6.38,1.29,6.8.11,7.31.17,7.35-1.83,7.11-1.67,7.15-3.61,6.4-3.65,6.31-4.09,6.11-5.24,5.17-5.82,4.47-6.16,3.94-6.3,3.72-6.49,3.46-7.1,1.93-6.95,2.34-7.24,1.18-7.26.92-7.31.58-7.31-.56-7.3-.62-7.23-1.27-7.06-2.02-6.85-2.68-6.61-3.24-5.89-4.46-6.3,3.88-6.68,3.11-6.58,3.42-7.11,2.08-7.32,1.09-7.32.86-7.37.48-7.38-.29-7.36-.81-7.24-1.55-6.89-2.7-6.83-2.73-6.78-2.92-6.19-4.02-6.37-3.79-5.16-5.33-5.31-5.33-4.33-6.16-3.82-6.49-3.38-6.79-1.49-7.44-1.12-7.44-.37-7.56,1.08-7.53,2.93-7,4.14-5.92,5.43-4.79,7.1-1.62,6.91,1.91,5.98,3.82,4,5.96,1.14,7.15-1.59,7.11-3.72,6.28-6.29,5.77-2.93,7.87-.57,6.71,1.59,6.58,3.83,5.66,5.64,3.83,6.08,4.08,6.1,4.19,7.07,2.19,6.96,2.28,7.13,1.7,7.26,1.09,7.34.13,7.33-.42,7.34-.79,7.13-1.98,6.53-3.49,6.21-3.39-4.74-5.21-5.3-5.03-4.46-5.78-4.42-5.8-4.07-6.06-3.66-6.32-3.4-6.47-2.85-6.73-2.49-6.86-1.85-7.06-2.19-6.95-1.55-7.12-1.08-7.21-1.46-7.17-.3-7.3-.45-7.28.04-7.3.49-7.28.4-7.3,1.41-7.17,1.75-7.08.8-7.3,2.1-7,2.87-6.73,2.47-6.85,3.02-6.94-7,2.88-6.59,3.18-7.01,2.05-7.08,1.74-7.11,1.57-7.19,1.15-7.17,1.27-7.26.52-7.26.67-7.29.34-7.3-.1-7.25-.91-7.22-.99-7.15-1.43-7.07-1.73-7.23-1.21-6.7-2.97-7.08-1.9-6.48-3.39-6.51-3.28-6.3-3.66-6.05-4.04-5.82-4.37-6.04-4.14-5.42-4.91-4.75-5.47-3.44,6.41-3.29,6.61-2.08,7.09-.59,7.37-.7,7.3.12,7.35.92,7.29,1.81,7.12,1.85,7.13,2.99,6.74,3.56,6.45,4.43,5.87,3.89,5.59,5.93,3.25,6.32,1.77h6.68s8.11-3.34,8.11-3.34l6.06-6.54,6.5-3.61,7.3-1.68,7.07,2.22,6.15,3.96,3.88,6.36.15,7.37-2.26,6.81-4.54,5.67-6.25,3.96-7.23,1.58-7,1.62-7.17-.48-7.19-.43-6.65-2.78-6.79-2.31-5.85-4.16-5.74-4.2-5.65-4.41-4.77-5.35-4.48-5.6-3.81-6.08-3.57-6.23-2.76-6.63-1.79-6.95-2.42-6.65-.43-7.07-.69-6.97-.63-7.02.63-7.02,1.33-6.91,1.68-6.82,1.83-6.8,2.59-6.56,3.5-6.12,3.4-6.16-4.11-6.15-3.22-6.66-2.65-6.89-2.37-7.01-1.13-7.31-1.07-7.3-.38-7.38.15-7.4,1.26-7.3,1.66-7.19,2.11-7.07,2.46-6.97,3.57-6.47,3.56-6.48,4.14-6.14,4.9-5.56,5.73-4.8,5.96-4.45,6.42-3.78,6.84-2.98,7.12-2.32,7.48-.35,7.42-.64,7.3,1.47,7.22,1.89,6.28,4.1,4.71,5.79,2.08,7.21-1.39,7.4-4.3,6.14-6.48,3.81-7.44-.03-7.26-1.55-6.73-4.09-5.87-5.2-7-2.93-7.8-.2-5.78,2.12-5.29,3.32-3.48,5.23-3.94,6.18-4.23,6.07-2.72,6.86-2.5,6.95-1.13,7.3-.61,7.31-.25,7.31.03,7.36,1.14,7.29,2.14,7.06,3.09,6.68,3.46,6.44,5.09-5.17,5.49-4.78,5.73-4.47,5.69-4.53,6-4.13,6.49-3.32,6.25-3.79,6.71-2.88,6.94-2.27,6.94-2.19,7-1.99,7.17-1.28,7.11-1.56,7.18-1.34,7.32.1,7.27-.36,7.28-.08,7.26.53,7.25.62,7.3.46,7.02,2.08,7.13,1.46,7.15,1.51,6.95,2.24,6.79,2.67,6.39,2.85-2.91-6.37-2.56-6.84-2.14-6.98-2.02-7.01-1.58-7.12-1.64-7.12-.54-7.29-1.05-7.22-.3-7.29v-7.29s.13-7.29.13-7.29l.75-7.26.91-7.23.92-7.25,1.64-7.12,2.2-6.96,1.81-7.09,2.96-6.69,2.9-6.7,3.77-6.26,3.24-6.53,4.14-6,4.44-5.77,4.41-5.8,4.61-5.68,5.17-4.73-5.97-3.77-6.81-2.83-7.18-1.64-7.16-1.77-7.38.13-7.38-.65-7.34.95-7.02,2.32-6.95,2.3-7,2.35-6.39,3.68-6.14,4.09-5.05,4.51-3.83,5.53-1.86,6.45-.14,6.8,4.28,7.7,6.26,6.34,3.45,6.58,1.46,7.27-1.37,7.3-4.87,5.49-6.14,3.85-7.22.65-7.15-1.69-5.02-5.38-4.25-6.02-1.88-7.17-1.1-7.38.54-7.44.78-7.42,2.13-7.17,3.47-6.62,3.89-6.35,4.16-6.25,5.31-5.3,5.95-4.54,6-4.24,6.21-3.94,6.66-3.12,6.87-2.61,7.1-1.86,7.18-1.41,7.23-1.3h7.35s7.39-.33,7.39-.33l7.24,1.44,7.16,1.63,6.92,2.44,7.04,2.16,6.47,3.52,6.42,3.89,6.26-4.19,6.53-3.46,6.78-2.98,7.25-1.55,7.22-1.42,7.28-1.17,7.37-.25,7.37.39,7.39.5,7.23,1.62,7,2.4,6.77,2.94,6.79,2.9,6.4,3.7,5.63,4.81,5.75,4.6,5.21,5.33,4.25,6.12,3.82,6.4,2.49,7.02,2.82,6.95.6,7.46.18,7.44-.9,7.41-2.24,7.14-3.92,6.45-6.1,4.33-7.14,1.54-7.31-.81-5.99-4.36-3.33-6.49-.76-7.25,1.42-7.34,4.18-6.75,5.97-5.26,2.33-7.49.1-7.79-1.41-6.13-3.95-4.96-5.35-3.32-5.58-4.89-6.49-3.56-7.11-2.11-6.93-2.37-7.03-2.28-7.37-.51-7.35-.28-7.32.7-7.27,1.14-7.03,2.17-6.98,2.43-6.19,3.91,5.18,5.04,4.9,5.39,4.95,5.37,4.09,6.06,3.94,6.13,3.97,6.14,2.92,6.7,3.03,6.63,2.6,6.82,1.91,7.04,2,7,1.26,7.17,2.04,7.04.22,7.32.97,7.23.24,7.29-.4,7.28-.36,7.27-.2,7.3-.8,7.26-2.2,7-.85,7.28-2.32,6.93-2.25,6.93-2.96,6.66-2.39,6.67ZM239.82,32.07l-5.43,4.47-4.8,5.33-4.88,5.28-4.25,5.8-3.92,6.03-2.68,6.71-3.43,6.28-2.64,6.65-2.46,6.71-2.04,6.85-2.29,6.81-1.12,7.09-1.18,7.07-.7,7.14-.11,7.17-.5,7.17.45,7.16,1.14,7.09.59,7.15,1.24,7.07,2.39,6.78,2.06,6.84,1.78,6.98,3.52,6.28,3.17,6.4,2.99,6.54,4.57,5.56,4.05,5.9,5.04,5.08,4.99,5.1,5.2,4.9,5.07-5.04,5.4-4.73,4.18-5.84,4.77-5.37,3.59-6.21,3.9-6.03,3.24-6.41,2.77-6.63,1.74-6.99,2.6-6.69,1.67-6.98,1.64-7,.47-7.18.91-7.11.42-7.16-.23-7.17-.09-7.18-.9-7.12-1.46-7.02-1.26-7.04-1.82-6.92-2.08-6.84-2.68-6.63-2.8-6.57-2.52-6.75-3.74-6.13-3.78-6.12-4.9-5.28-4.65-5.42-5.14-4.95-5.06-4.84ZM116.95,198.51l-7.45.35-7.33,1.4-7.36,1.26-7.2,2.01-7.09,2.38-6.54,3.69-6.85,2.9-6.44,3.72-6.3,3.95-6,4.39-6.1,4.31-5.23,5.33-5.17,5.48,4.78,5.46,5.28,4.85,5.12,5.04,5.81,4.21,6.24,3.55,5.99,3.94,6.36,3.33,6.85,2.2,6.69,2.48,6.63,2.8,7.13,1.03,7,1.44,6.98,1.75h7.2s7.12.75,7.12.75l7.15-.4,7.14-.2,7.15-.34,7.03-1.36,7.14-.79,6.81-2.28,7.04-1.45,6.62-2.77,6.77-2.39,6.49-3.08,6.24-3.56,5.62-4.5,6.09-3.81,5.45-4.67,5.36-4.8,4.37-5.66-4.48-5.82-5.07-5.38-5.67-4.74-5.72-4.69-6.3-3.87-6.64-3.23-6.59-3.29-6.86-2.68-6.97-2.37-7.16-1.74-7.18-1.61-7.14-1.99-7.36-.7-7.35-.77-7.4.51-7.36.08-7.35.37ZM335.71,198.51l-7.47.3-7.35,1.35-7.39,1.2-7.23,1.95-7.12,2.33-6.58,3.65-6.88,2.87-6.46,3.72-6.3,3.97-5.98,4.43-6.07,4.38-5.16,5.41-5.07,5.59,4.71,5.52,5.22,4.91,5.07,5.09,5.78,4.26,6.22,3.58,5.98,3.96,6.35,3.34,6.85,2.2,6.7,2.47,6.64,2.78,7.13.99,7,1.4,6.99,1.7,7.2-.05,7.13.69,7.15-.46,7.14-.25,7.15-.39,7.02-1.41,7.13-.83,6.8-2.31,7.03-1.47,6.62-2.78,6.77-2.39,6.49-3.07,6.25-3.54,5.64-4.47,6.12-3.76,5.49-4.61,5.41-4.74,4.45-5.6-4.57-5.73-5.12-5.31-5.7-4.68-5.74-4.64-6.3-3.84-6.63-3.22-6.57-3.29-6.84-2.69-6.95-2.39-7.14-1.76-7.16-1.65-7.12-2.02-7.34-.74-7.33-.81-7.39.47-7.35.04-7.34.34ZM239.82,250.87l-5.49,4.39-4.86,5.28-4.93,5.23-4.3,5.76-3.96,6.01-2.7,6.7-3.44,6.27-2.64,6.65-2.44,6.72-2.02,6.86-2.26,6.82-1.08,7.09-1.13,7.08-.65,7.14-.06,7.17-.44,7.17.51,7.16,1.19,7.08.64,7.14,1.28,7.06,2.43,6.77,2.09,6.83,1.79,6.97,3.52,6.28,3.16,6.4,2.97,6.56,4.54,5.58,4.01,5.93,4.99,5.13,4.93,5.16,5.14,4.96,5-5.1,5.34-4.79,4.12-5.88,4.73-5.41,3.55-6.23,3.88-6.04,3.23-6.41,2.77-6.63,1.75-6.98,2.63-6.68,1.7-6.97,1.68-6.99.52-7.17.96-7.11.47-7.16-.18-7.17-.04-7.18-.85-7.13-1.41-7.03-1.22-7.05-1.79-6.93-2.06-6.85-2.67-6.64-2.8-6.57-2.53-6.75-3.77-6.12-3.81-6.09-4.94-5.24-4.7-5.38-5.2-4.89-5.13-4.77Z"/>
  </g>
</svg>