<?xml version="1.0" encoding="UTF-8"?>
<svg id="Ebene_1" data-name="Ebene 1" xmlns="http://www.w3.org/2000/svg" viewBox="0 0 1500 1312.1">
  <defs>
    <style>
      .cls-1 {
        fill: #fff;
      }
    </style>
  </defs>
  <path class="cls-1" d="M257.2,169.07c3.87-3.16,8.09-6.16,12.67-8.97,6.33-4.05,13.19-7.74,20.05-11.61,7.21-3.7,14.08-6.86,19.7-8.79,10.38-3.7,8.09-5.98,17.42-11.61,4.4-2.81,9.32-2.81,14.07-6.33,2.99-2.47,2.47-6.51,5.27-5.98-.7,10.56,8.27-2.28,12.67-4.75,2.28-1.05,7.39-1.05,7.74-1.41.35-.35-2.82-3.52,2.11-8.09,2.28-2.11,1.76,7.91,6.16,4.05.7-.7-2.99-3.17-1.06-4.05,4.92-2.11,10.73-2.99,15.83-6.16,2.47-1.58,9.85-10.03,12.14-11.61,1.76-1.05,11.96.53,11.78-8.79,8.79,7.21,4.75,1.93,6.86.7.18-.18.52-.35.7-.35,5.45-3.52,7.03-4.92,12.14-8.44,4.58-3.16,13.02,1.76,11.08-8.27l2.99,4.05c1.76-.88,5.45-9.5,7.04-8.09.88.53-1.59,4.75,2.11,4.05-1.59-10.73,3.69-3.34,6.33-5.1,1.23-.7,1.23-4.4,2.1-4.92.36-.18,3.87,2.29,7.75.88,3.69-1.23,8.97-8.27,11.6-8.79,2.47-.35,5.28,1.76,7.74,1.58,1.06,0,6.16-11.61,8.45-2.11,4.57-1.23,8.97-7.21,9.67-7.39,2.82-1.41,11.61.53,14.77-6.86l2.11,4.05c10.91-8.44,26.03-7.21,36.76-14.25l2.99,6.16c-1.93-4.22,16.01-11.43,17.42-11.61,2.64-.18,5.81,4.05,7.03,3.34.18-.18-.7-2.81,2.64-4.57,2.82-1.58,20.76-1.58,24.63-2.11,4.22-.7,15.65-4.93,16.71-5.1,3.69-.7,22.87,5.63,25.33,3.16.88-.88-1.23-4.4,2.28-3.52-1.75,8.09,11.09-.35,15.49-.88,8.44-1.4,21.81.18,30.6,1.23,14.78,2.11,29.03,3.87,46.79,4.57,28.5,1.06,56.46,13.72,84.43,19,14.78,2.64,75.81,7.03,81.8,11.26,7.03,5.1,9.32,4.05,11.25,5.45,2.65,1.76,6.68,11.78,17.07,14.07,2.64.53,5.98-1.76,6.51-1.41.52.35,1.06,5.45,4.22,7.04,4.23,1.93,9.85.53,14.43.88-5.45,7.21,11.43,7.56,16.35,11.26,4.58,3.52,3.69,8.79,4.05,9.14.35.53,3.69-2.46,5.81-1.76.35.18,3.17,5.81,4.92,7.04,1.06.7,8.09,1.05,9.5,3.34,1.06,1.93-2.99,8.62,2.11,15.12,2.28,2.81,5.1.88,5.81,1.58,14.42,12.49,30.78,32.89,45.74,47.67,9.5,9.32,27.09,22.34,37.99,33.95,37.83,40.63,69.48,124.71,80.56,178.19,6.86,32.89,14.78,74.23,13.9,110.29-.7,32.36.18,57.69.88,89.88,1.4,81.62-90.95,229.73-155.67,278.8-30.78,23.22-69.3,14.6-103.08,24.62-1.75.53-1.75,3.52-3.16,3.87-6.16,1.94-35.71,11.79-38.35,11.79-3.51-.35-3.51-7.56-6.33.7-15.48-1.93-30.78.18-46.44-2.29-38.69-6.16-79.15-24.45-117.32-36.06-8.97-2.64-30.08-8.44-36.76-17.59-.88-1.05.17-4.22-.7-5.1-1.41-1.41-8.62,0-11.43-2.99-.88-1.06-.88-4.57-2.47-6.51-6.51-8.09-18.82-19.17-16.36-29.55-8.26,3.17-10.2-17.41-9.32-23.57.35-2.29,2.81-3.34,3.17-4.22.52-1.58-3.87-.35-4.05-2.11-.34-2.11,3.52-36.94,4.23-40.28.35-1.05,6.68-19,7.21-19.87,7.03-11.96,20.93-30.78,33.07-38.52,20.23-13.19,75.11-30.61,99.56-30.61,1.05,0,.7,3.7,2.1,3.87,4.75.35,17.42-3.69,22.34-3.17,2.65.18,5.28,2.99,8.27,3.17,6.33.18,11.43-7.21,7.03,4.05,14.6-7.56,11.08-.35,14.25,1.93.88.7,4.4-3.16,7.21-3.34,1.58,0,7.74,2.99,12.31,3.16,2.82,0,17.94-.53,19-2.11-.52-6.86,3.34-17.06,3.52-23.22,0-2.81-3.52-11.43-2.82-14.25.17-1.23,3.69-1.05,3.69-1.93-.17-4.4-5.63-7.92-5.81-8.27-.52-2.64,1.24-11.08,0-16.54-7.21-31.66-23.57-56.64-38.69-86.19-7.74-14.95-13.19-37.64-25.69-48.72-2.46-2.11-8.79-3.16-9.32-6.16-.88-3.17,5.63-7.39,2.99-11.08-2.28-3.69-50.48-10.91-57.87-11.61-59.62-5.45-125.41,19.7-176.6,47.14-40.45,21.46-84.95,61.39-117.32,93.93-95.86,96.92-74.05,221.99-63.85,345.64,1.93,23.75,4.4,45.03,11.61,72.12,2.64,10.2,6.85,19.7,12.31,30.43,21.99,42.39,43.62,84.08,74.94,117.15,29.02,30.96,73.52,73.52,111.87,93.23,14.07,7.03,32.01,12.66,46.96,19.17,2.11,1.05,1.24,5.63,6.68,4.05,1.94-.53-.34-5.1,3-4.05-.35,4.4,7.03,7.04,10.9,8.62,7.57,2.99,18.65,1.23,25.16,3.17,2.99.88,2.64,3.69,3.87,4.05.88.18,15.65.18,16.35,0,.7-.18,3.34-11.26,6.16,2.46,2.11-3.52,6.33-1.93,8.09-2.64,4.05-1.41-.52-1.58,9.32-2.29,1.76,0,3.7-2.46,4.93-2.28,6.33.18,14.07,10.55,15.48-.88l2.82,4.05c10.91-6.86,7.92-1.76,9.67-.53,1.06.7,3.17-1.58,4.58-1.58.7,0,7.39,12.31,7.39-1.94,3.69-.88,1.41,3.34,1.93,4.05,2.47,1.94,5.98-4.22,9.33-4.22,1.41,0,0,5.63,4.05,4.22,3.69-1.41,5.8-8.97,14.25-4.05,4.92-16.01,4.57-.53,5.1-.18,3.69,3.52,16.89-7.56,19.52-8.09.7-.18.52,6.86,11.96,4.05,2.47-.53-.17-4.93,3.17-4.05l4.23,6.16c-1.06-5.1,14.94-11.43,12.31-4.05l2.99-4.22c6.86,10.03,8.09,3.34,12.32,2.99,4.92-.53,15.66,9.67,17.41-2.99,3.35-.88,1.06,2.99,2.11,3.87,2.64,2.11,8.09-2.46,11.43-3.17,3-.7,7.4,4.75,6.86-2.64,7.03,7.03,8.62,1.06,16.18,0l1.06,5.98,16.36-12.14,2.11,6.16c4.74-7.91,10.9-3.87,18.11-6.16,3.87-1.23,8.44-5.63,10.73-5.8,2.99-.35,5.28,3.7,5.81,3.7,1.76,0,3.52-7.21,6.51-7.92,2.28-.7,5.81,2.11,6.51,1.58,8.26-5.98,8.26-7.21,19.34-12.14,4.05-1.76,4.58-7.56,11.61-3.87.53-.53-2.11-3.34-1.76-3.87,2.29-3.52,27.79-7.56,24.28-16.54h1.93c1.23,9.85,14.95-3.17,14.42-10.38l2.99,4.22c10.56-6.86,16.36-10.56,29.03-9.68,2.46.18,4.74,3.34,6.68,2.46,10.73-4.57,29.02-17.59,40.1-24.27,21.28-13.19,50.49-37.64,74.23-45.38,2.64-.7,5.81,1.41,6.16,1.06.35-.35.7-5.1,2.64-7.39,2.28-2.47,10.02-5.45,11.25-7.21,2.65-3.34,7.04-10.73,11.96-16.71,11.96-13.72,26.92-36.06,38.87-54,2.29-3.52,8.27-4.57,6.86-12.65.18,1.06,2.88,3.07,3.61,3.93-1.67-13.16,12.2-19.31,18.94-28.72,9.38-13.1,19.4-32.25,24-47.7,5.42-18.23,46.31-107.25,50.24-125.82,7.17-33.89,8.84-72.36,5.18-107.15-1.75-16.67-.88-35.9-8.06-50.7,2.64,5.44,39.03,4.72,45.35,5.26,10.58.89,28.88-4.47,37.84,2.6,10.05,7.95-1.01,39.45-3.17,49.29-3.9,17.79-11.61,34.26-17.79,50.99-2.78,7.53-5.26,15.12-6.94,22.89-6.86,31.77-41.4,132.14-55.45,162.61-8.88,19.26-22.16,37.81-34.59,55.25-10.23,14.34-21.55,29.63-33.69,42.4-11.01,11.58-27.67,17.6-37.86,29.8-8.32,9.97-11.25,22.21-19.31,32.76-19.74,25.86-45.63,48.15-70.65,68.69-18.65,15.3-46.62,25.68-65.61,42.04-4.58,3.87-10.03,14.78-14.43,17.77-10.56,7.03-20.93,16.36-32.36,23.92-11.26,7.39-18.83,12.31-29.91,19.7-19,12.66-55.93,29.55-77.75,34.12-4.75,1.06-17.24,0-21.99,1.41-7.74,2.46-18.65,5.45-27.44,6.51-12.84,1.41-34.83-1.23-46.08,1.23-1.59.35-.53,3.34-.88,3.52-7.74-7.92-9.5-.88-15.31-.18-6.16.7-24.27-2.46-28.67-1.41-8.61,2.11-8.27.53-18.29.53-34.12,0-64.55,5.45-98.68-.35-22.17-3.7-51.54-8.09-73.35-13.54-29.37-7.04-56.46-21.46-83.9-37.47-7.39-4.22-32.71-18.12-38.7-23.74-.88-.7-14.42-18.12-14.95-19.17-4.4-7.21,2.29-19-14.24-12.84,4.22-7.56-4.93-17.24-10.2-22.87-24.63-26.21-37.29-33.77-57.17-68.07-14.78-25.33-19-50.66-32.19-75.99-20.41-39.05-39.93-76.69-53.47-116.45-27.97-82.85-13.72-131.4-10.38-214.25,1.05-23.57-2.65-39.05,2.99-62.27,8.09-33.07,27.26-62.8,48.02-88.13,30.78-37.64,115.74-128.41,168.33-135.79,22.86-3.16,42.92-10.55,62.62-17.94,13.9-5.28,24.62-10.2,37.29-14.07,4.57-1.41,6.33-7.39,8.61.7,1.94-1.93,3.52-4.4,6.16-5.28,7.21-2.81,24.27-3.69,34.3-5.45,2.99-.35,5.45-3.34,6.5-3.69.53,0,1.94,7.39,6.86,3.69,1.06-.7-1.06-4.57,2.28-3.52-.88,8.62,15.66-.17,19.88.53,5.1.7,7.56,4.4,9.84,4.75.7.17,7.57-4.4,11.79-3.34,1.76.35,1.4,3.52,2.46,3.87,2.47.88,16.53-1.05,17.42-.7,3.17.88,12.14,8.09,15.31,9.14,1.76.53.35-3.52,1.93-4.05,5.1,4.4,13.02,2.47,18.29,4.75,9.85,4.05,19.87,12.49,28.32,19,8.98,6.86,22.17,18.65,30.61,27.27,9.5,9.5,18.11,20.75,24.8,31.84,18.47,30.43,39.05,50.13,42.22,89.88.88,11.61-3.87,25.15-4.05,34.65,0,1.06,3.87.88,3.87,1.94-.7,10.55-13.36,32.89-19.7,41.51-3.34,4.4-9.15,14.07-13.01,17.77-6.51,5.98-25.16,16.18-33.77,17.24-42.75,5.28-126.82-27.97-154.62,22.69-2.11,3.87-8.27,34.12-8.62,39.75-.7,8.62.35,28.15,2.28,37.47,1.94,8.27,5.1,10.73,8.62,15.83,20.41,29.9,29.73,35.18,57.87,50.13,1.76.88,10.2,7.56,10.91,7.56,1.41.18,3.51-4.57,5.1-3.69.17,0-.7,2.64,1.4,4.05,6.51,4.4,21.29,5.1,29.2,4.05l-2.11,4.05c7.03-3.69,14.78,3.69,19.53,4.05.88,0,.88-3.69,2.1-4.05,7.57-2.11,6.86,3.87,8.44,4.22,2.11.35,12.5-2.29,13.9-1.76,1.59.35,0,5.28,4.05,3.7,4.05-1.41,6.86-8.79,16.36-4.05l-1.06-4.05c1.24-.88,14.43,5.81,14.43-4.05l2.99,4.05c3.51-8.79,6.15-4.75,11.78-6.15,1.41-.53,19.7-10.73,24.1-12.84,1.23-.7,3.69.53,3.86.35.7-1.41-.52-4.92,0-5.98.53-.88,4.75,2.29,5.98,1.76.18,0,0-3.34,2.82-4.4,9.33-3.87,20.93-8.97,29.37-16.36,7.57-6.51,23.58-27.62,30.08-31.31,3.69-2.11,8.62-.88,8.98-1.23,7.21-5.28,16.89-20.58,22.34-26.21,1.58-1.76,8.44-3.7,8.61-4.05.53-.53-2.64-5.28-1.93-5.98.35-.35,3.87.7,5.45-.53,8.27-5.81,24.8-34.83,30.6-44.33,23.58-39.4,37.12-89.18,51.02-136.85l-1.24-83.9,6.16,6.16c-1.58-6.33,3.17-16.89,3.34-21.64,4.58-86.37-28.5-196.66-90.06-258.4-15.3-15.3-30.95-28.14-45.02-42.74-2.47-2.64-7.04-.7-3-6.15-14.94-7.92-18.47-16.71-36.93-23.75-60.87-23.22-130.52-48.9-197.54-63.5-23.4-5.1-100.09-9.85-123.13-5.8-13.9,2.64-26.57,9.68-39.93,13.02-19.18,5.1-41.52,5.63-61.39,9.68-41.51,8.44-102.55,26.21-142.65,49.43-5.45,3.17-10.74,6.51-15.31,9.85-15.48,11.44-28.85,22.52-42.21,33.07-3.52.88-7.21,1.23-11.96.88-2.28-.18-4.57-3.34-6.51-2.46-10.73,4.57-29.19,17.59-40.1,24.27-21.46,13.19-50.66,37.64-74.41,45.38-2.47.7-5.81-1.41-5.98-1.05-.53.35-.7,5.1-2.82,7.39-2.11,2.46-9.85,5.45-11.08,7.21-1.06,1.23-2.28,2.99-3.87,5.28-2.28,3.52-5.1,7.74-8.26,11.43-11.96,13.72-26.73,36.05-38.69,53.99-3.32,4.98-6.96,5.27-6.97,12.2-.67-.75-2.59-2.26-3.51-3.51,1.12,14.4-13.34,23.28-20.07,34.53-8.84,14.79-15.93,35.15-21.1,51.63-5.72,18.24-8.32,36.63-11.32,55.44-5.24,32.89-25.91,237.34-25.91,271.34,0,18.35,4.47,36.3,3.06,53.55-10.13.3-17.92-5.32-27.9-6.37-29.92-3.15-49.93-7.53-48.04-38.02,1.37-22.11,45.58-231.13,49.17-252.95,2.46-14.95,7.21-37.29,10.91-54.35,12.84-59.81,42.03-109.94,75.63-158.13.35-.35.52-.7.88-1.06l55.76-73.52c.18-.35.53-.7.7-1.06,1.06-1.05,1.94-2.11,3-3.16,9.67-10.91,20.05-3.87,31.03-14.13"/>
  <path class="cls-1" d="M196.17,209.35c-1.06,1.06-1.94,2.11-3,3.16l-2.1-4.05c2.1.7,3.86.88,5.1.88Z"/>
  <path class="cls-1" d="M269.87,160.1c-4.58,2.81-8.79,5.81-12.67,8.97-10.38,8.44-20.58,17.24-30.25,26.38.52-3.16,1.06-5.63,1.4-5.81,1.06-.7,4.23-.35,5.45-1.4,8.44-8.79,21.99-19.17,36.06-28.15Z"/>
</svg>